ply
format ascii 1.0
comment happy-first-mesh.ply
element vertex 121
property float32 x
property float32 y
property float32 z
element face 206
property list uint8 int32 vertex_index
end_header
0.01063561 0.2267913 0.7631658
-0.009364712 0.192019 0.7226576
0.01242585 0.1596384 0.7119485
0.0127928 0.1277233 0.7113855
0.01281373 0.1199967 0.7145863
0.01365179 0.0660925 0.7029083
0.01348245 0.06155726 0.7137122
0.0136379 0.05838253 0.7078111
0.01378933 0.04115664 0.7097985
0.01380754 0.03322545 0.7132449
0.01410785 -0.004036242 0.7188832
-0.01577798 0.2238216 0.7628058
-0.04475519 0.2073411 0.7580346
-0.04118157 0.171208 0.7339959
-0.06295682 0.1621413 0.760649
-0.05097679 0.124902 0.736514
-0.03364555 0.1348654 0.7187008
-0.0008391526 0.1250474 0.7112756
-0.03358368 0.1285422 0.7191215
-0.02446365 0.121745 0.7243129
-0.04487731 0.1130355 0.7377767
-0.02442785 0.1185943 0.7242783
-0.02433597 0.109204 0.7249032
-0.003166357 0.1126018 0.7251242
-0.02431455 0.1070152 0.7250488
-0.0001499107 0.07524379 0.7231456
-0.007966141 0.06457636 0.7236884
-0.03430011 0.08245903 0.7319648
-0.05470751 0.06628011 0.7671816
-0.06236976 0.114597 0.7638151
-0.0445437 0.02382857 0.7702119
-0.01730953 0.05176567 0.7285112
-0.007332609 0.002404952 0.7265865
0.008430798 0.05685483 0.7069306
0.03303638 0.1924913 0.7235205
0.01242585 0.1596384 0.7119485
0.0127928 0.1277233 0.7113855
0.01281373 0.1199967 0.7145863
0.01365179 0.0660925 0.7029083
0.01348245 0.06155726 0.7137122
0.01364996 0.04904262 0.7123306
0.01385966 0.02960989 0.7126629
0.01382675 0.02205265 0.7184168
0.01402448 -0.009330174 0.7258781
0.03710154 0.2244106 0.7638818
0.0666086 0.2085815 0.7603008
0.06482116 0.1723887 0.7361529
0.0856907 0.1637971 0.7636738
0.07553445 0.1263112 0.7390884
0.0587246 0.1358943 0.7205805
0.02647413 0.1253516 0.7118314
0.05878647 0.1295711 0.7210012
0.04961642 0.1225701 0.7258204
0.06965438 0.1143113 0.7401074
0.04965222 0.1194195 0.7257859
0.0497441 0.1100292 0.7264106
0.02851262 0.1129546 0.7257689
0.04976552 0.1078404 0.7265563
0.02641169 0.07553966 0.7236861
0.03443495 0.06504865 0.7245512
0.06000577 0.08350948 0.7338838
0.07931893 0.06777299 0.769909
0.08603407 0.11625 0.766835
0.06998798 0.02510431 0.7725426
0.04385734 0.05244699 0.7297559
0.03506848 0.002877245 0.7274494
0.01890923 0.05697155 0.7071439
-0.02986249 0.1184354 0.7278394
-0.02976562 0.1085351 0.7284981
0.05493969 0.11938 0.7295651
0.05503657 0.1094796 0.7302238
-0.01974958 0.118548 0.7280452
-0.01965271 0.1086477 0.7287039
0.04482679 0.1192673 0.7293593
0.04492366 0.109367 0.730018
0.003748197 0.06671101 0.7099886
0.02324295 0.06692816 0.7103853
0.01007679 0.1201443 0.7172065
0.01543785 0.120204 0.7173156
-0.001788025 0.05572317 0.7154576
0.02879541 0.05606383 0.7160799
0.001074274 0.04979333 0.7174994
0.02598516 0.0500708 0.7180064
0.001040097 0.04960948 0.7192796
0.02595098 0.04988696 0.7197865
-0.001717816 0.04487103 0.7179475
0.02886561 0.04521169 0.7185699
0.01368287 0.04935628 0.7105418
-0.01170797 0.05273034 0.7316219
0.0381138 0.05328529 0.7326357
-0.03054255 0.04248752 0.7355782
0.05699524 0.04346258 0.7373595
0.005024361 0.09769472 0.7201773
0.02086385 0.09787115 0.7204996
0.01302471 0.1022437 0.7139357
-0.03468645 0.1191494 0.7308667
0.05961943 0.1201999 0.7327858
-0.0346686 0.1173254 0.7309881
0.05963727 0.1183759 0.7329071
-0.03459721 0.1100294 0.7314735
0.05970866 0.1110799 0.7333926
-0.03461471 0.1090237 0.7328838
0.05969117 0.1100742 0.7348028
-0.01386302 0.1190334 0.7260602
0.0390165 0.1196224 0.7271363
-0.01384518 0.1172094 0.7261816
0.03903435 0.1177984 0.7272577
-0.01377379 0.1099133 0.726667
0.03910574 0.1105024 0.7277431
-0.01379128 0.1089077 0.7280772
0.03908824 0.1094967 0.7291533
-0.001200147 0.06158796 0.7163326
0.02804198 0.06191367 0.7169276
0.0820204 0.07081381 0.8152115
0.08885739 0.1192922 0.8121399
0.08718445 0.1657299 0.8090243
0.08674159 0.1221013 0.8546684
-0.05931657 0.0692395 0.8123354
-0.06710065 0.117555 0.8089663
-0.06633674 0.1640199 0.8059003
-0.06677961 0.1203912 0.8515444
3	11	0	1
3	1	0	34
3	34	0	44
3	12	11	1
3	34	44	45
3	12	1	13
3	13	1	2
3	2	1	34
3	46	2	34
3	46	34	45
3	14	12	13
3	14	13	15
3	15	13	16
3	13	2	16
3	16	2	17
3	17	2	3
3	3	2	50
3	50	2	49
3	49	2	46
3	49	46	48
3	48	46	47
3	46	45	47
3	29	14	15
3	29	15	20
3	15	18	19
3	16	18	15
3	18	16	17
3	18	17	19
3	23	17	77
3	17	3	77
3	78	3	50
3	56	78	50
3	52	50	51
3	50	49	51
3	49	48	51
3	51	48	52
3	53	48	62
3	48	47	62
3	28	29	27
3	29	20	27
3	26	24	25
3	58	57	59
3	60	53	62
3	60	62	61
3	26	111	33
3	26	75	111
3	25	75	26
3	59	76	58
3	112	76	59
3	66	112	59
3	33	6	7
3	7	6	66
3	32	9	10
3	10	9	65
3	76	6	5
3	5	6	75
3	77	3	78
3	33	7	79
3	79	7	81
3	81	7	87
3	80	7	66
3	82	7	80
3	87	7	82
3	82	80	89
3	89	80	64
3	88	79	81
3	31	79	88
3	79	26	33
3	31	26	79
3	66	59	80
3	80	59	64
3	88	83	85
3	88	85	31
3	83	8	85
3	83	40	8
3	8	40	84
3	8	84	86
3	89	86	84
3	64	86	89
3	9	85	8
3	9	8	86
3	85	32	31
3	9	32	85
3	65	86	64
3	65	9	86
3	26	27	24
3	30	90	32
3	32	90	31
3	90	30	28
3	90	26	31
3	90	27	26
3	90	28	27
3	60	59	57
3	65	91	63
3	64	91	65
3	91	61	63
3	91	64	59
3	91	59	60
3	91	60	61
3	77	92	23
3	23	92	25
3	25	92	75
3	56	93	78
3	76	93	58
3	58	93	56
3	77	94	92
3	92	94	75
3	75	94	5
3	5	94	76
3	76	94	93
3	93	94	78
3	78	94	77
3	95	20	15
3	97	20	95
3	101	20	99
3	27	20	101
3	19	95	15
3	21	95	19
3	97	95	21
3	27	101	24
3	24	101	22
3	22	101	99
3	23	103	17
3	23	105	103
3	23	109	107
3	23	25	109
3	17	103	19
3	19	103	21
3	21	103	105
3	107	109	22
3	22	109	24
3	24	109	25
3	104	56	50
3	106	56	104
3	110	56	108
3	58	56	110
3	52	104	50
3	54	104	52
3	106	104	54
3	55	110	108
3	57	110	55
3	58	110	57
3	48	53	96
3	53	98	96
3	100	53	102
3	102	53	60
3	48	96	52
3	52	96	54
3	54	96	98
3	100	102	55
3	55	102	57
3	57	102	60
3	6	111	75
3	33	111	6
3	76	112	6
3	6	112	66
3	74	73	70
3	70	73	69
3	68	67	72
3	72	67	71
3	69	53	70
3	74	56	73
3	71	23	72
3	68	20	67
3	69	98	53
3	69	54	98
3	73	54	69
3	106	54	73
3	56	106	73
3	108	56	74
3	74	55	108
3	70	55	74
3	100	55	70
3	53	100	70
3	67	20	97
3	67	97	21
3	67	21	71
3	71	21	105
3	71	105	23
3	99	20	68
3	99	68	22
3	72	22	68
3	107	22	72
3	23	107	72
3	63	61	113
3	61	62	113
3	113	62	114
3	62	47	114
3	114	47	115
3	47	45	115
3	113	114	116
3	114	115	116
3	28	30	117
3	29	28	117
3	29	117	118
3	14	29	118
3	14	118	119
3	12	14	119
3	118	117	120
3	119	118	120
3	88	81	83
3	81	40	83
3	82	89	84
3	87	82	84
3	81	87	40
3	87	84	40