ply
format ascii 1.0
comment surprise-first-mesh.ply
element vertex 121
property float32 x
property float32 y
property float32 z
element face 206
property list uint8 int32 vertex_index
end_header
0.014334 0.2167621 0.7612709
-0.004736705 0.1861322 0.7212279
0.01572596 0.1557141 0.7094218
0.0159354 0.1258703 0.7072235
0.01592328 0.1184092 0.7098424
0.0164823 0.06812704 0.6960076
0.0163063 0.06328316 0.7059706
0.0164396 0.0569991 0.7011242
0.01656428 0.02066943 0.7048502
0.0164308 0.01487462 0.7129813
0.0164167 -0.0106295 0.7205915
-0.01065205 0.2140892 0.7607908
-0.03812089 0.1989025 0.7554435
-0.03490369 0.1660296 0.7308645
-0.05552175 0.1561733 0.7555655
-0.04553903 0.1323631 0.7317983
-0.03082343 0.1436137 0.7160045
-0.001177448 0.1279559 0.706851
-0.03079174 0.1376222 0.7160721
-0.01926083 0.118298 0.7191533
-0.03750584 0.1094922 0.7314427
-0.01924639 0.1164552 0.7189437
-0.01919355 0.106466 0.7190562
-0.0002521785 0.1095536 0.7194084
-0.01918265 0.1044047 0.7190795
0.00347859 0.07576972 0.7155972
-0.003956705 0.06570411 0.7155578
-0.02877454 0.08200872 0.7243207
-0.04812692 0.06498594 0.7567348
-0.05516657 0.1108066 0.7560794
-0.03906366 0.02454939 0.7573714
-0.007700269 0.03964438 0.7157232
-0.003780127 -0.006615911 0.7264943
0.01151985 0.05702253 0.6993359
0.03535459 0.1863535 0.7220437
0.01572596 0.1557141 0.7094218
0.01593676 0.125613 0.7072265
0.01592464 0.1181519 0.7098453
0.01648366 0.06786968 0.6960105
0.01630766 0.06302579 0.7059735
0.01643752 0.02980639 0.7086012
0.01652786 0.03291951 0.7033175
0.01646637 0.02548544 0.7083555
0.01652198 -0.004530785 0.7137634
0.03934686 0.2143652 0.7618082
0.06717636 0.1994836 0.7575861
0.06532455 0.1665828 0.732904
0.08502821 0.1569489 0.7584255
0.07628389 0.1330354 0.7342772
0.06209971 0.1441266 0.7178953
0.03302518 0.1281446 0.7075469
0.0621314 0.138135 0.7179629
0.05069861 0.118681 0.7205769
0.06852463 0.1100742 0.7336004
0.05071305 0.1168382 0.7203673
0.05076589 0.1068489 0.7204799
0.03179295 0.1097273 0.7200605
0.05077679 0.1047877 0.7205031
0.02859325 0.07590832 0.7161082
0.03613459 0.06592537 0.7163736
0.06039403 0.08250082 0.7261351
0.07859844 0.06568532 0.7593135
0.08515297 0.111581 0.7589347
0.06996347 0.02515109 0.7595899
0.04015561 0.03990849 0.716697
0.03631117 -0.006394654 0.7273101
0.02142747 0.05707721 0.6995375
-0.02438282 0.1158761 0.7223031
-0.02432877 0.1056572 0.7224183
0.05571464 0.116315 0.723933
0.05576869 0.1060962 0.7240483
-0.01482082 0.1159289 0.7224977
-0.01476676 0.10571 0.7226129
0.04615264 0.1162622 0.7237384
0.04620669 0.1060434 0.7238536
0.007123615 0.06838381 0.7027295
0.02555639 0.06848554 0.7031046
0.01333705 0.1184236 0.7123252
0.01840606 0.1184515 0.7124283
0.004314076 0.05335211 0.7097912
0.02824201 0.05348416 0.7102781
0.006722714 0.04651839 0.7114151
0.02584486 0.04662393 0.7118042
0.006705041 0.03215183 0.71618
0.02582718 0.03225736 0.7165691
0.00436805 0.02543998 0.7147089
0.02829599 0.02557203 0.7151958
0.01643219 0.04852184 0.7037873
-0.002969882 0.04149141 0.7190331
0.0352744 0.04170248 0.7198113
-0.02311324 0.04096011 0.7234954
0.05522421 0.04139245 0.7250895
0.008465422 0.09709695 0.7139623
0.02344205 0.09717961 0.7142671
0.01604692 0.1016828 0.7083028
-0.02839096 0.1155601 0.7252216
0.05960399 0.1160426 0.7270122
-0.02838187 0.1138407 0.725241
0.05961308 0.1143232 0.7270316
-0.0283454 0.1069453 0.7253188
0.05964955 0.1074278 0.7271094
-0.02836582 0.1059314 0.7265975
0.05962913 0.1064139 0.7283882
-0.009793527 0.1156068 0.7206444
0.04120876 0.1158852 0.7216823
-0.009784433 0.1138875 0.7206638
0.04121785 0.1141658 0.7217017
-0.009747961 0.106992 0.7207416
0.04125432 0.1072704 0.7217795
-0.009768386 0.1059781 0.7220203
0.0412339 0.1062565 0.7230582
0.002425285 0.06323774 0.7084541
0.03007445 0.06339034 0.7090167
0.08117992 0.06618299 0.8022379
0.08784965 0.1120793 0.8018615
0.08646479 0.1560876 0.8013418
0.08587468 0.1125232 0.8421578
-0.05245773 0.06544546 0.7995186
-0.05961259 0.1112655 0.7988608
-0.05869335 0.1552865 0.798388
-0.05928347 0.1117221 0.8392041
3	11	0	1
3	1	0	34
3	34	0	44
3	12	11	1
3	34	44	45
3	12	1	13
3	13	1	2
3	2	1	34
3	46	2	34
3	46	34	45
3	14	12	13
3	14	13	15
3	15	13	16
3	13	2	16
3	16	2	17
3	17	2	3
3	3	2	50
3	50	2	49
3	49	2	46
3	49	46	48
3	48	46	47
3	46	45	47
3	29	14	15
3	29	15	20
3	15	18	19
3	16	18	15
3	18	16	17
3	18	17	19
3	23	17	77
3	17	3	77
3	78	3	50
3	56	78	50
3	52	50	51
3	50	49	51
3	49	48	51
3	51	48	52
3	53	48	62
3	48	47	62
3	28	29	27
3	29	20	27
3	26	24	25
3	58	57	59
3	60	53	62
3	60	62	61
3	26	111	33
3	26	75	111
3	25	75	26
3	59	76	58
3	112	76	59
3	66	112	59
3	33	6	7
3	7	6	66
3	32	9	10
3	10	9	65
3	76	6	5
3	5	6	75
3	77	3	78
3	33	7	79
3	79	7	81
3	81	7	87
3	80	7	66
3	82	7	80
3	87	7	82
3	82	80	89
3	89	80	64
3	88	79	81
3	31	79	88
3	79	26	33
3	31	26	79
3	66	59	80
3	80	59	64
3	88	83	85
3	88	85	31
3	83	8	85
3	83	40	8
3	8	40	84
3	8	84	86
3	89	86	84
3	64	86	89
3	9	85	8
3	9	8	86
3	85	32	31
3	9	32	85
3	65	86	64
3	65	9	86
3	26	27	24
3	30	90	32
3	32	90	31
3	90	30	28
3	90	26	31
3	90	27	26
3	90	28	27
3	60	59	57
3	65	91	63
3	64	91	65
3	91	61	63
3	91	64	59
3	91	59	60
3	91	60	61
3	77	92	23
3	23	92	25
3	25	92	75
3	56	93	78
3	76	93	58
3	58	93	56
3	77	94	92
3	92	94	75
3	75	94	5
3	5	94	76
3	76	94	93
3	93	94	78
3	78	94	77
3	95	20	15
3	97	20	95
3	101	20	99
3	27	20	101
3	19	95	15
3	21	95	19
3	97	95	21
3	27	101	24
3	24	101	22
3	22	101	99
3	23	103	17
3	23	105	103
3	23	109	107
3	23	25	109
3	17	103	19
3	19	103	21
3	21	103	105
3	107	109	22
3	22	109	24
3	24	109	25
3	104	56	50
3	106	56	104
3	110	56	108
3	58	56	110
3	52	104	50
3	54	104	52
3	106	104	54
3	55	110	108
3	57	110	55
3	58	110	57
3	48	53	96
3	53	98	96
3	100	53	102
3	102	53	60
3	48	96	52
3	52	96	54
3	54	96	98
3	100	102	55
3	55	102	57
3	57	102	60
3	6	111	75
3	33	111	6
3	76	112	6
3	6	112	66
3	74	73	70
3	70	73	69
3	68	67	72
3	72	67	71
3	69	53	70
3	74	56	73
3	71	23	72
3	68	20	67
3	69	98	53
3	69	54	98
3	73	54	69
3	106	54	73
3	56	106	73
3	108	56	74
3	74	55	108
3	70	55	74
3	100	55	70
3	53	100	70
3	67	20	97
3	67	97	21
3	67	21	71
3	71	21	105
3	71	105	23
3	99	20	68
3	99	68	22
3	72	22	68
3	107	22	72
3	23	107	72
3	63	61	113
3	61	62	113
3	113	62	114
3	62	47	114
3	114	47	115
3	47	45	115
3	113	114	116
3	114	115	116
3	28	30	117
3	29	28	117
3	29	117	118
3	14	29	118
3	14	118	119
3	12	14	119
3	118	117	120
3	119	118	120
3	88	81	83
3	81	40	83
3	82	89	84
3	87	82	84
3	81	87	40
3	87	84	40